<svg width="31" height="16" viewBox="0 0 31 16" fill="none" xmlns="http://www.w3.org/2000/svg">
<path d="M30.32 13.7687L26.8356 7.88423L30.2844 2.23978C30.3663 2.10528 30.411 1.95143 30.4139 1.79399C30.4168 1.63654 30.3779 1.48115 30.301 1.34371C30.2242 1.20626 30.1122 1.09171 29.9765 1.01176C29.8408 0.931804 29.6864 0.889327 29.5289 0.888672H1.77778C1.30628 0.888672 0.854097 1.07597 0.520699 1.40937C0.187301 1.74277 0 2.19495 0 2.66645L0 13.3331C0 13.8046 0.187301 14.2568 0.520699 14.5902C0.854097 14.9236 1.30628 15.1109 1.77778 15.1109H29.5556C29.7124 15.1109 29.8665 15.0693 30.0022 14.9905C30.1378 14.9116 30.2502 14.7982 30.3278 14.6619C30.4054 14.5256 30.4456 14.3711 30.4443 14.2142C30.4429 14.0574 30.4 13.9036 30.32 13.7687ZM9.34222 10.8265H8.34667L5.44889 6.96867V10.8353H4.44444V5.33312H5.44889L8.35556 9.19978V5.33312H9.35111L9.34222 10.8265ZM14.9689 6.22201H11.8311V7.54645H14.6756V8.43534H11.8311V9.86645H14.9689V10.7553H10.8267V5.33312H14.96L14.9689 6.22201ZM22.3378 10.8087H21.3333L19.9556 6.72867L18.5778 10.8265H17.5822L15.8044 5.33312H16.8889L18.0622 9.27089L19.4133 5.33312H20.4978L21.7956 9.27089L22.9778 5.33312H24.0711L22.3378 10.8087Z" fill="#3498DB"/>
</svg>
